<svg width="48" height="48" viewBox="0 0 48 48" fill="none" xmlns="http://www.w3.org/2000/svg">
<path d="M12 0.5H24C36.9787 0.5 47.5 11.0213 47.5 24V36C47.5 42.3513 42.3513 47.5 36 47.5H24C11.0213 47.5 0.5 36.9787 0.5 24V12C0.5 5.64873 5.64873 0.5 12 0.5Z" fill="white" stroke="#166534"/>
<path d="M9.088 32V15.2H16.528C17.696 15.2 18.672 15.368 19.456 15.704C20.256 16.024 20.864 16.496 21.28 17.12C21.696 17.728 21.904 18.472 21.904 19.352C21.904 20.296 21.664 21.088 21.184 21.728C20.72 22.368 20.048 22.816 19.168 23.072L19.144 22.568C19.864 22.744 20.496 23.04 21.04 23.456C21.6 23.856 22.032 24.352 22.336 24.944C22.64 25.52 22.792 26.176 22.792 26.912C22.792 27.76 22.64 28.504 22.336 29.144C22.048 29.784 21.632 30.32 21.088 30.752C20.56 31.168 19.928 31.48 19.192 31.688C18.472 31.896 17.672 32 16.792 32H9.088ZM12.976 28.568H16.624C17.296 28.568 17.816 28.408 18.184 28.088C18.568 27.768 18.76 27.312 18.76 26.72C18.76 26.352 18.664 26.04 18.472 25.784C18.296 25.528 18.04 25.336 17.704 25.208C17.368 25.08 16.968 25.016 16.504 25.016H12.976V28.568ZM12.976 21.92H15.976C16.392 21.92 16.744 21.856 17.032 21.728C17.32 21.584 17.536 21.392 17.68 21.152C17.84 20.896 17.92 20.6 17.92 20.264C17.92 19.752 17.744 19.352 17.392 19.064C17.04 18.776 16.512 18.632 15.808 18.632H12.976V21.92ZM27.1641 37.52L30.0681 30.704L30.1161 32.72L23.9481 19.256H28.3161L31.0041 25.688C31.1481 25.992 31.2841 26.336 31.4121 26.72C31.5401 27.104 31.6361 27.464 31.7001 27.8L31.1481 28.112C31.2441 27.872 31.3481 27.568 31.4601 27.2C31.5881 26.832 31.7241 26.44 31.8681 26.024L34.2201 19.256H38.6121L33.2121 32L31.0281 37.52H27.1641Z" fill="#166534"/>
<path d="M9.088 32H8.088V33H9.088V32ZM9.088 15.2V14.2H8.088V15.2H9.088ZM19.456 15.704L19.0621 16.6231L19.0733 16.6279L19.0846 16.6325L19.456 15.704ZM21.28 17.12L20.4479 17.6747L20.4547 17.6847L21.28 17.12ZM21.184 21.728L20.384 21.128L20.3791 21.1345L20.3744 21.141L21.184 21.728ZM19.168 23.072L18.1691 23.1196L18.2295 24.3865L19.4473 24.0322L19.168 23.072ZM19.144 22.568L19.3815 21.5966L18.0815 21.2788L18.1451 22.6156L19.144 22.568ZM21.04 23.456L20.4326 24.2504L20.4455 24.2603L20.4588 24.2697L21.04 23.456ZM22.336 24.944L21.4464 25.4008L21.4516 25.4108L22.336 24.944ZM22.336 29.144L21.4327 28.7149L21.4283 28.7242L21.4241 28.7336L22.336 29.144ZM21.088 30.752L21.7069 31.5375L21.7099 31.5351L21.088 30.752ZM19.192 31.688L18.92 30.7257L18.9145 30.7273L19.192 31.688ZM12.976 28.568H11.976V29.568H12.976V28.568ZM18.184 28.088L17.5438 27.3198L17.5357 27.3265L17.5278 27.3334L18.184 28.088ZM18.472 25.784L17.648 26.3505L17.6596 26.3675L17.672 26.384L18.472 25.784ZM17.704 25.208L18.06 24.2735L18.06 24.2735L17.704 25.208ZM12.976 25.016V24.016H11.976V25.016H12.976ZM12.976 21.92H11.976V22.92H12.976V21.92ZM17.032 21.728L17.4381 22.6418L17.4589 22.6326L17.4792 22.6224L17.032 21.728ZM17.68 21.152L16.832 20.622L16.8272 20.6297L16.8225 20.6375L17.68 21.152ZM17.392 19.064L18.0252 18.29L18.0252 18.29L17.392 19.064ZM12.976 18.632V17.632H11.976V18.632H12.976ZM10.088 32V15.2H8.088V32H10.088ZM9.088 16.2H16.528V14.2H9.088V16.2ZM16.528 16.2C17.6075 16.2 18.4394 16.3563 19.0621 16.6231L19.8499 14.7849C18.9046 14.3797 17.7845 14.2 16.528 14.2V16.2ZM19.0846 16.6325C19.7256 16.8889 20.1602 17.2431 20.448 17.6747L22.1121 16.5653C21.5678 15.7489 20.7864 15.1591 19.8274 14.7755L19.0846 16.6325ZM20.4547 17.6847C20.7362 18.0962 20.904 18.6336 20.904 19.352H22.904C22.904 18.3104 22.6558 17.3598 22.1053 16.5553L20.4547 17.6847ZM20.904 19.352C20.904 20.1199 20.7119 20.6908 20.384 21.128L21.984 22.328C22.6161 21.4852 22.904 20.4721 22.904 19.352H20.904ZM20.3744 21.141C20.0609 21.5734 19.5908 21.9075 18.8887 22.1118L19.4473 24.0322C20.5052 23.7245 21.3791 23.1626 21.9936 22.315L20.3744 21.141ZM20.1669 23.0244L20.1429 22.5204L18.1451 22.6156L18.1691 23.1196L20.1669 23.0244ZM18.9065 23.5394C19.5035 23.6853 20.0071 23.925 20.4326 24.2504L21.6475 22.6616C20.9849 22.155 20.2245 21.8027 19.3815 21.5966L18.9065 23.5394ZM20.4588 24.2697C20.8936 24.5803 21.2178 24.9556 21.4464 25.4008L23.2256 24.4872C22.8462 23.7484 22.3064 23.1317 21.6212 22.6423L20.4588 24.2697ZM21.4516 25.4108C21.6703 25.8251 21.792 26.3173 21.792 26.912H23.792C23.792 26.0347 23.6097 25.2149 23.2204 24.4772L21.4516 25.4108ZM21.792 26.912C21.792 27.6404 21.6617 28.2328 21.4327 28.7149L23.2393 29.5731C23.6183 28.7752 23.792 27.8796 23.792 26.912H21.792ZM21.4241 28.7336C21.2009 29.2296 20.8837 29.6373 20.4661 29.9689L21.7099 31.5351C22.3803 31.0027 22.8951 30.3384 23.2479 29.5544L21.4241 28.7336ZM20.4691 29.9665C20.0573 30.291 19.5472 30.5484 18.92 30.7257L19.464 32.6503C20.3088 32.4116 21.0627 32.045 21.7069 31.5375L20.4691 29.9665ZM18.9145 30.7273C18.2988 30.9052 17.594 31 16.792 31V33C17.75 33 18.6452 32.8868 19.4695 32.6487L18.9145 30.7273ZM16.792 31H9.088V33H16.792V31ZM12.976 29.568H16.624V27.568H12.976V29.568ZM16.624 29.568C17.446 29.568 18.2315 29.3719 18.8402 28.8426L17.5278 27.3334C17.4005 27.4441 17.146 27.568 16.624 27.568V29.568ZM18.8242 28.8562C19.479 28.3106 19.76 27.5482 19.76 26.72H17.76C17.76 27.0758 17.657 27.2254 17.5438 27.3198L18.8242 28.8562ZM19.76 26.72C19.76 26.1694 19.6127 25.6383 19.272 25.184L17.672 26.384C17.7153 26.4417 17.76 26.5346 17.76 26.72H19.76ZM19.296 25.2175C18.9877 24.7689 18.555 24.4621 18.06 24.2735L17.348 26.1425C17.525 26.2099 17.6043 26.2871 17.648 26.3505L19.296 25.2175ZM18.06 24.2735C17.5826 24.0917 17.056 24.016 16.504 24.016V26.016C16.88 26.016 17.1534 26.0683 17.348 26.1425L18.06 24.2735ZM16.504 24.016H12.976V26.016H16.504V24.016ZM11.976 25.016V28.568H13.976V25.016H11.976ZM12.976 22.92H15.976V20.92H12.976V22.92ZM15.976 22.92C16.4893 22.92 16.9884 22.8417 17.4381 22.6418L16.6259 20.8142C16.4996 20.8703 16.2947 20.92 15.976 20.92V22.92ZM17.4792 22.6224C17.9111 22.4065 18.2816 22.093 18.5375 21.6665L16.8225 20.6375C16.7904 20.691 16.7289 20.7615 16.5848 20.8336L17.4792 22.6224ZM18.528 21.682C18.7983 21.2495 18.92 20.7656 18.92 20.264H16.92C16.92 20.4344 16.8817 20.5425 16.832 20.622L18.528 21.682ZM18.92 20.264C18.92 19.4946 18.6404 18.7934 18.0252 18.29L16.7588 19.838C16.8476 19.9106 16.92 20.0094 16.92 20.264H18.92ZM18.0252 18.29C17.4197 17.7946 16.6229 17.632 15.808 17.632V19.632C16.4011 19.632 16.6603 19.7574 16.7588 19.838L18.0252 18.29ZM15.808 17.632H12.976V19.632H15.808V17.632ZM11.976 18.632V21.92H13.976V18.632H11.976ZM27.1641 37.52L26.2441 37.128L25.6511 38.52H27.1641V37.52ZM30.0681 30.704L31.0678 30.6802L29.1481 30.312L30.0681 30.704ZM30.1161 32.72L29.207 33.1365L31.1158 32.6962L30.1161 32.72ZM23.9481 19.256V18.256H22.3901L23.039 19.6725L23.9481 19.256ZM28.3161 19.256L29.2388 18.8704L28.982 18.256H28.3161V19.256ZM31.0041 25.688L30.0815 26.0736L30.0904 26.0951L30.1004 26.1161L31.0041 25.688ZM31.7001 27.8L32.1922 28.6706L32.8167 28.3176L32.6825 27.6129L31.7001 27.8ZM31.1481 28.112L30.2196 27.7406L29.1627 30.3829L31.6402 28.9826L31.1481 28.112ZM31.4601 27.2L30.5156 26.8715L30.5092 26.89L30.5035 26.9088L31.4601 27.2ZM31.8681 26.024L30.9235 25.6957L30.9231 25.6969L31.8681 26.024ZM34.2201 19.256V18.256H33.509L33.2755 18.9277L34.2201 19.256ZM38.6121 19.256L39.5329 19.6461L40.1219 18.256H38.6121V19.256ZM33.2121 32L32.2914 31.6099L32.2867 31.6209L32.2823 31.6321L33.2121 32ZM31.0281 37.52V38.52H31.7079L31.958 37.8879L31.0281 37.52ZM28.0841 37.912L30.9881 31.096L29.1481 30.312L26.2441 37.128L28.0841 37.912ZM29.0684 30.7278L29.1164 32.7438L31.1158 32.6962L31.0678 30.6802L29.0684 30.7278ZM31.0253 32.3035L24.8573 18.8395L23.039 19.6725L29.207 33.1365L31.0253 32.3035ZM23.9481 20.256H28.3161V18.256H23.9481V20.256ZM27.3935 19.6416L30.0815 26.0736L31.9268 25.3024L29.2388 18.8704L27.3935 19.6416ZM30.1004 26.1161C30.2241 26.3773 30.3457 26.683 30.4634 27.0362L32.3608 26.4038C32.2226 25.989 32.0721 25.6067 31.9079 25.2599L30.1004 26.1161ZM30.4634 27.0362C30.5798 27.3854 30.6635 27.7019 30.7178 27.9871L32.6825 27.6129C32.6088 27.2261 32.5004 26.8226 32.3608 26.4038L30.4634 27.0362ZM31.2081 26.9294L30.6561 27.2414L31.6402 28.9826L32.1922 28.6706L31.2081 26.9294ZM32.0766 28.4834C32.1869 28.2077 32.3001 27.8746 32.4168 27.4912L30.5035 26.9088C30.3961 27.2614 30.3014 27.5363 30.2196 27.7406L32.0766 28.4834ZM32.4046 27.5285C32.5328 27.16 32.669 26.7675 32.8131 26.3511L30.9231 25.6969C30.7793 26.1125 30.6434 26.504 30.5156 26.8715L32.4046 27.5285ZM32.8127 26.3523L35.1647 19.5843L33.2755 18.9277L30.9235 25.6957L32.8127 26.3523ZM34.2201 20.256H38.6121V18.256H34.2201V20.256ZM37.6914 18.8659L32.2914 31.6099L34.1329 32.3901L39.5329 19.6461L37.6914 18.8659ZM32.2823 31.6321L30.0983 37.1521L31.958 37.8879L34.142 32.3679L32.2823 31.6321ZM31.0281 36.52H27.1641V38.52H31.0281V36.52Z" fill="#166534"/>
</svg>
